<?xml version="1.0" encoding="utf-8"?>
<!-- Generator: Adobe Illustrator 16.0.4, SVG Export Plug-In . SVG Version: 6.00 Build 0)  -->
<!DOCTYPE svg PUBLIC "-//W3C//DTD SVG 1.1//EN" "http://www.w3.org/Graphics/SVG/1.1/DTD/svg11.dtd">
<svg version="1.1" id="Layer_1" xmlns="http://www.w3.org/2000/svg" xmlns:xlink="http://www.w3.org/1999/xlink" x="0px" y="0px"
	 width="150px" height="40px" viewBox="0 0 150 40" enable-background="new 0 0 150 40" xml:space="preserve">

<g id="0">
	<rect display="inline" fill="#2D4377" width="150" height="40"/>
	<polygon display="inline" fill="#ED2D5A" points="112.5,0 105,25.5 45,25.5 37.5,0 	"/>
	<text transform="matrix(1 0 0 1 67.5635 22.1592)" display="inline" fill="#231F20" font-family="'DroidSans'" font-size="27">?</text>
</g>
<g id="1">
	<rect display="inline" fill="#2D4377" width="150" height="40"/>
	<polygon display="inline" fill="#ED2D5A" points="112.5,0 105,25.5 45,25.5 37.5,0 	"/>
	<text transform="matrix(1 0 0 1 67.5635 22.1592)" display="inline" fill="#231F20" font-family="'DroidSans'" font-size="27">1</text>
</g>
<g id="2">
	<rect display="inline" fill="#2D4377" width="150" height="40"/>
	<polygon display="inline" fill="#ED2D5A" points="112.5,0 105,25.5 45,25.5 37.5,0 	"/>
	<text transform="matrix(1 0 0 1 67.5635 22.1592)" display="inline" fill="#231F20" font-family="'DroidSans'" font-size="27">2</text>
</g>
<g id="3">
	<rect display="inline" fill="#2D4377" width="150" height="40"/>
	<polygon display="inline" fill="#ED2D5A" points="112.5,0 105,25.5 45,25.5 37.5,0 	"/>
	<text transform="matrix(1 0 0 1 67.5635 22.1592)" display="inline" fill="#231F20" font-family="'DroidSans'" font-size="27">3</text>
</g>
<g id="4">
	<rect display="inline" fill="#2D4377" width="150" height="40"/>
	<polygon display="inline" fill="#ED2D5A" points="112.5,0 105,25.5 45,25.5 37.5,0 	"/>
	<text transform="matrix(1 0 0 1 67.5635 22.1592)" display="inline" fill="#231F20" font-family="'DroidSans'" font-size="27">4</text>
</g>


<g id="0-selected">
    <rect x="1.5" y="1.5" fill="#2D4377" width="147" height="37"/>
	<polygon fill="#ED2D5A" points="112.5,0 105,25.5 45,25.5 37.5,0 	"/>
	<text transform="matrix(1 0 0 1 67.5635 22.1592)" fill="#231F20" font-family="'DroidSans'" font-size="27">?</text>
    <path fill="#0383F8" d="M147,3v34H3V3H147 M150,0H0v40h150V0L150,0z"/>
</g>
<g id="1-selected">
	<rect display="inline" fill="#2D4377" width="150" height="40"/>
	<polygon display="inline" fill="#ED2D5A" points="112.5,0 105,25.5 45,25.5 37.5,0 	"/>
	<text transform="matrix(1 0 0 1 67.5635 22.1592)" display="inline" fill="#231F20" font-family="'DroidSans'" font-size="27">1</text>
	<path fill="#0383F8" d="M147,3v34H3V3H147 M150,0H0v40h150V0L150,0z"/>
</g>
<g id="2-selected">
	<rect display="inline" fill="#2D4377" width="150" height="40"/>
	<polygon display="inline" fill="#ED2D5A" points="112.5,0 105,25.5 45,25.5 37.5,0 	"/>
	<text transform="matrix(1 0 0 1 67.5635 22.1592)" display="inline" fill="#231F20" font-family="'DroidSans'" font-size="27">2</text>
	<path fill="#0383F8" d="M147,3v34H3V3H147 M150,0H0v40h150V0L150,0z"/>
</g>
<g id="3-selected">
	<rect display="inline" fill="#2D4377" width="150" height="40"/>
	<polygon display="inline" fill="#ED2D5A" points="112.5,0 105,25.5 45,25.5 37.5,0 	"/>
	<text transform="matrix(1 0 0 1 67.5635 22.1592)" display="inline" fill="#231F20" font-family="'DroidSans'" font-size="27">3</text>
	<path fill="#0383F8" d="M147,3v34H3V3H147 M150,0H0v40h150V0L150,0z"/>
</g>
<g id="4-selected">
	<rect display="inline" fill="#2D4377" width="150" height="40"/>
	<polygon display="inline" fill="#ED2D5A" points="112.5,0 105,25.5 45,25.5 37.5,0 	"/>
	<text transform="matrix(1 0 0 1 67.5635 22.1592)" display="inline" fill="#231F20" font-family="'DroidSans'" font-size="27">4</text>
	<path fill="#0383F8" d="M147,3v34H3V3H147 M150,0H0v40h150V0L150,0z"/>
</g>
</svg>
