<?xml version="1.0" encoding="utf-8"?>
<!-- Generator: Adobe Illustrator 16.0.4, SVG Export Plug-In . SVG Version: 6.00 Build 0)  -->
<!DOCTYPE svg PUBLIC "-//W3C//DTD SVG 1.1//EN" "http://www.w3.org/Graphics/SVG/1.1/DTD/svg11.dtd">
<svg version="1.1" id="Layer_1" xmlns="http://www.w3.org/2000/svg" xmlns:xlink="http://www.w3.org/1999/xlink" x="0px" y="0px"
	 width="79px" height="79px" viewBox="0 0 79 79" enable-background="new 0 0 79 79" xml:space="preserve">

     
     
<g id="normal">
	<path fill="#111133" stroke="#FCF9E5" stroke-width="4" stroke-miterlimit="10" d="M77,39.5C77,60.211,60.207,77,39.5,77
		C18.789,77,2,60.211,2,39.5S18.789,2,39.5,2C60.207,2,77,18.789,77,39.5z"/>
    <line fill="#111133" stroke="#FCF9E5" stroke-width="4" stroke-linecap="round" stroke-linejoin="round" stroke-miterlimit="10" x1="54.409" y1="73.904" x2="73.204" y2="23.057"/>
    <line fill="#111133" stroke="#FCF9E5" stroke-width="4" stroke-linecap="round" stroke-linejoin="round" stroke-miterlimit="10" x1="24.587" y1="73.904" x2="5.793" y2="23.057"/>
</g>


<g id="normal-selected">
	<path fill="#111133" stroke="#0383F8" stroke-width="4" stroke-miterlimit="10" d="M77,39.5C77,60.211,60.207,77,39.5,77
		C18.789,77,2,60.211,2,39.5S18.789,2,39.5,2C60.207,2,77,18.789,77,39.5z"/>
    <line fill="#111133" stroke="#0383F8" stroke-width="4" stroke-linecap="round" stroke-linejoin="round" stroke-miterlimit="10" x1="54.409" y1="73.904" x2="73.204" y2="23.057"/>
    <line fill="#111133" stroke="#0383F8" stroke-width="4" stroke-linecap="round" stroke-linejoin="round" stroke-miterlimit="10" x1="24.587" y1="73.904" x2="5.793" y2="23.057"/>
</g>


<g id="on">
	<path fill="#2C4276" stroke="#FCF9E5" stroke-width="4" stroke-miterlimit="10" d="M77,39.5C77,60.211,60.207,77,39.5,77
		C18.789,77,2,60.211,2,39.5S18.789,2,39.5,2C60.207,2,77,18.789,77,39.5z"/>
    <line fill="#2C4276" stroke="#FCF9E5" stroke-width="4" stroke-linecap="round" stroke-linejoin="round" stroke-miterlimit="10" x1="54.409" y1="73.904" x2="73.204" y2="23.057"/>
    <line fill="#2C4276" stroke="#FCF9E5" stroke-width="4" stroke-linecap="round" stroke-linejoin="round" stroke-miterlimit="10" x1="24.587" y1="73.904" x2="5.793" y2="23.057"/>
</g>


<g id="on-selected">
	<path fill="#2C4276" stroke="#0383F8" stroke-width="4" stroke-miterlimit="10" d="M77,39.5C77,60.211,60.207,77,39.5,77
		C18.789,77,2,60.211,2,39.5S18.789,2,39.5,2C60.207,2,77,18.789,77,39.5z"/>
    <line fill="#2C4276" stroke="#0383F8" stroke-width="4" stroke-linecap="round" stroke-linejoin="round" stroke-miterlimit="10" x1="54.409" y1="73.904" x2="73.204" y2="23.057"/>
    <line fill="#2C4276" stroke="#0383F8" stroke-width="4" stroke-linecap="round" stroke-linejoin="round" stroke-miterlimit="10" x1="24.587" y1="73.904" x2="5.793" y2="23.057"/>
</g>
     
</svg>
