<?xml version="1.0" encoding="utf-8"?>
<!-- Generator: Adobe Illustrator 16.0.4, SVG Export Plug-In . SVG Version: 6.00 Build 0)  -->
<!DOCTYPE svg PUBLIC "-//W3C//DTD SVG 1.1//EN" "http://www.w3.org/Graphics/SVG/1.1/DTD/svg11.dtd">
<svg version="1.1" id="Layer_1" xmlns="http://www.w3.org/2000/svg" xmlns:xlink="http://www.w3.org/1999/xlink" x="0px" y="0px"
	 width="79px" height="79px" viewBox="0 0 79 79" enable-background="new 0 0 79 79" xml:space="preserve">

<g id="off">
    <path fill="#111133" stroke="#FCF9E5" stroke-width="4" stroke-linecap="round" stroke-linejoin="round" stroke-miterlimit="10" d="
    M60.492,56.701H18.506 M24.936,74.057L5.941,22.768 M54.064,74.057l18.994-51.289 M2,39.5C2,60.211,18.791,77,39.502,77
    C60.211,77,77,60.211,77,39.5C77,18.787,60.211,2,39.502,2C18.791,2,2,18.787,2,39.5z M26.725,34.371l3.939,2.273
    M30.664,36.645v4.547 M30.664,36.645l-7.482,4.32 M30.664,21.912v4.549 M30.664,26.461l-3.939,2.273 M30.664,26.461
    l-7.482-4.318 M43.42,19.096l-3.939,2.273 M39.48,21.369l-3.938-2.275 M39.48,21.369v-8.643 M52.242,28.734l-3.943-2.273
    M48.299,26.461v-4.549 M48.299,26.461l7.482-4.318 M48.299,41.191v-4.547 M48.299,36.645l3.943-2.273 M48.299,36.645
    l7.482,4.32 M35.543,44.012l3.938-2.273 M39.48,41.738l8.818-5.096 M30.664,36.645l8.816,5.094 M39.48,41.738l3.939,2.273
    M30.664,26.461v10.184 M39.48,21.369l-8.816,5.092 M48.299,26.461l-8.818-5.092 M48.299,36.645V26.461 M39.48,41.738v8.635"/>
</g>


<g id="off-hover">
    <path fill="#111133" stroke="#0383F8" stroke-width="4" stroke-linecap="round" stroke-linejoin="round" stroke-miterlimit="10" d="
    M60.492,56.701H18.506 M24.936,74.057L5.941,22.768 M54.064,74.057l18.994-51.289 M2,39.5C2,60.211,18.791,77,39.502,77
    C60.211,77,77,60.211,77,39.5C77,18.787,60.211,2,39.502,2C18.791,2,2,18.787,2,39.5z M26.725,34.371l3.939,2.273
    M30.664,36.645v4.547 M30.664,36.645l-7.482,4.32 M30.664,21.912v4.549 M30.664,26.461l-3.939,2.273 M30.664,26.461
    l-7.482-4.318 M43.42,19.096l-3.939,2.273 M39.48,21.369l-3.938-2.275 M39.48,21.369v-8.643 M52.242,28.734l-3.943-2.273
    M48.299,26.461v-4.549 M48.299,26.461l7.482-4.318 M48.299,41.191v-4.547 M48.299,36.645l3.943-2.273 M48.299,36.645
    l7.482,4.32 M35.543,44.012l3.938-2.273 M39.48,41.738l8.818-5.096 M30.664,36.645l8.816,5.094 M39.48,41.738l3.939,2.273
    M30.664,26.461v10.184 M39.48,21.369l-8.816,5.092 M48.299,26.461l-8.818-5.092 M48.299,36.645V26.461 M39.48,41.738v8.635"/>

</g>


<g id="on">
    <path fill="#2C4276" stroke="#FCF9E5" stroke-width="4" stroke-linecap="round" stroke-linejoin="round" stroke-miterlimit="10" d="
    M60.492,56.701H18.506 M24.936,74.057L5.941,22.768 M54.064,74.057l18.994-51.289 M2,39.5C2,60.211,18.791,77,39.502,77
    C60.211,77,77,60.211,77,39.5C77,18.787,60.211,2,39.502,2C18.791,2,2,18.787,2,39.5z M26.725,34.371l3.939,2.273
    M30.664,36.645v4.547 M30.664,36.645l-7.482,4.32 M30.664,21.912v4.549 M30.664,26.461l-3.939,2.273 M30.664,26.461
    l-7.482-4.318 M43.42,19.096l-3.939,2.273 M39.48,21.369l-3.938-2.275 M39.48,21.369v-8.643 M52.242,28.734l-3.943-2.273
    M48.299,26.461v-4.549 M48.299,26.461l7.482-4.318 M48.299,41.191v-4.547 M48.299,36.645l3.943-2.273 M48.299,36.645
    l7.482,4.32 M35.543,44.012l3.938-2.273 M39.48,41.738l8.818-5.096 M30.664,36.645l8.816,5.094 M39.48,41.738l3.939,2.273
    M30.664,26.461v10.184 M39.48,21.369l-8.816,5.092 M48.299,26.461l-8.818-5.092 M48.299,36.645V26.461 M39.48,41.738v8.635"/>

</g>


<g id="on-hover">
    <path fill="#2C4276" stroke="#0383F8" stroke-width="4" stroke-linecap="round" stroke-linejoin="round" stroke-miterlimit="10" d="
    M60.492,56.701H18.506 M24.936,74.057L5.941,22.768 M54.064,74.057l18.994-51.289 M2,39.5C2,60.211,18.791,77,39.502,77
    C60.211,77,77,60.211,77,39.5C77,18.787,60.211,2,39.502,2C18.791,2,2,18.787,2,39.5z M26.725,34.371l3.939,2.273
    M30.664,36.645v4.547 M30.664,36.645l-7.482,4.32 M30.664,21.912v4.549 M30.664,26.461l-3.939,2.273 M30.664,26.461
    l-7.482-4.318 M43.42,19.096l-3.939,2.273 M39.48,21.369l-3.938-2.275 M39.48,21.369v-8.643 M52.242,28.734l-3.943-2.273
    M48.299,26.461v-4.549 M48.299,26.461l7.482-4.318 M48.299,41.191v-4.547 M48.299,36.645l3.943-2.273 M48.299,36.645
    l7.482,4.32 M35.543,44.012l3.938-2.273 M39.48,41.738l8.818-5.096 M30.664,36.645l8.816,5.094 M39.48,41.738l3.939,2.273
    M30.664,26.461v10.184 M39.48,21.369l-8.816,5.092 M48.299,26.461l-8.818-5.092 M48.299,36.645V26.461 M39.48,41.738v8.635"/>

</g>





<g id="off-hot">
    <path fill="#EE2958" stroke="#FCF9E5" stroke-width="4" stroke-linecap="round" stroke-linejoin="round" stroke-miterlimit="10" d="
    M60.492,56.701H18.506 M24.936,74.057L5.941,22.768 M54.064,74.057l18.994-51.289 M2,39.5C2,60.211,18.791,77,39.502,77
    C60.211,77,77,60.211,77,39.5C77,18.787,60.211,2,39.502,2C18.791,2,2,18.787,2,39.5z M26.725,34.371l3.939,2.273
    M30.664,36.645v4.547 M30.664,36.645l-7.482,4.32 M30.664,21.912v4.549 M30.664,26.461l-3.939,2.273 M30.664,26.461
    l-7.482-4.318 M43.42,19.096l-3.939,2.273 M39.48,21.369l-3.938-2.275 M39.48,21.369v-8.643 M52.242,28.734l-3.943-2.273
    M48.299,26.461v-4.549 M48.299,26.461l7.482-4.318 M48.299,41.191v-4.547 M48.299,36.645l3.943-2.273 M48.299,36.645
    l7.482,4.32 M35.543,44.012l3.938-2.273 M39.48,41.738l8.818-5.096 M30.664,36.645l8.816,5.094 M39.48,41.738l3.939,2.273
    M30.664,26.461v10.184 M39.48,21.369l-8.816,5.092 M48.299,26.461l-8.818-5.092 M48.299,36.645V26.461 M39.48,41.738v8.635"/>
</g>


<g id="off-hot-hover">
    <path fill="#EE2958" stroke="#0383F8" stroke-width="4" stroke-linecap="round" stroke-linejoin="round" stroke-miterlimit="10" d="
    M60.492,56.701H18.506 M24.936,74.057L5.941,22.768 M54.064,74.057l18.994-51.289 M2,39.5C2,60.211,18.791,77,39.502,77
    C60.211,77,77,60.211,77,39.5C77,18.787,60.211,2,39.502,2C18.791,2,2,18.787,2,39.5z M26.725,34.371l3.939,2.273
    M30.664,36.645v4.547 M30.664,36.645l-7.482,4.32 M30.664,21.912v4.549 M30.664,26.461l-3.939,2.273 M30.664,26.461
    l-7.482-4.318 M43.42,19.096l-3.939,2.273 M39.48,21.369l-3.938-2.275 M39.48,21.369v-8.643 M52.242,28.734l-3.943-2.273
    M48.299,26.461v-4.549 M48.299,26.461l7.482-4.318 M48.299,41.191v-4.547 M48.299,36.645l3.943-2.273 M48.299,36.645
    l7.482,4.32 M35.543,44.012l3.938-2.273 M39.48,41.738l8.818-5.096 M30.664,36.645l8.816,5.094 M39.48,41.738l3.939,2.273
    M30.664,26.461v10.184 M39.48,21.369l-8.816,5.092 M48.299,26.461l-8.818-5.092 M48.299,36.645V26.461 M39.48,41.738v8.635"/>

</g>


<g id="on-hot">
    <path fill="#EE2958" stroke="#FCF9E5" stroke-width="4" stroke-linecap="round" stroke-linejoin="round" stroke-miterlimit="10" d="
    M60.492,56.701H18.506 M24.936,74.057L5.941,22.768 M54.064,74.057l18.994-51.289 M2,39.5C2,60.211,18.791,77,39.502,77
    C60.211,77,77,60.211,77,39.5C77,18.787,60.211,2,39.502,2C18.791,2,2,18.787,2,39.5z M26.725,34.371l3.939,2.273
    M30.664,36.645v4.547 M30.664,36.645l-7.482,4.32 M30.664,21.912v4.549 M30.664,26.461l-3.939,2.273 M30.664,26.461
    l-7.482-4.318 M43.42,19.096l-3.939,2.273 M39.48,21.369l-3.938-2.275 M39.48,21.369v-8.643 M52.242,28.734l-3.943-2.273
    M48.299,26.461v-4.549 M48.299,26.461l7.482-4.318 M48.299,41.191v-4.547 M48.299,36.645l3.943-2.273 M48.299,36.645
    l7.482,4.32 M35.543,44.012l3.938-2.273 M39.48,41.738l8.818-5.096 M30.664,36.645l8.816,5.094 M39.48,41.738l3.939,2.273
    M30.664,26.461v10.184 M39.48,21.369l-8.816,5.092 M48.299,26.461l-8.818-5.092 M48.299,36.645V26.461 M39.48,41.738v8.635"/>

</g>


<g id="on-hot-hover">
    <path fill="#EE2958" stroke="#0383F8" stroke-width="4" stroke-linecap="round" stroke-linejoin="round" stroke-miterlimit="10" d="
    M60.492,56.701H18.506 M24.936,74.057L5.941,22.768 M54.064,74.057l18.994-51.289 M2,39.5C2,60.211,18.791,77,39.502,77
    C60.211,77,77,60.211,77,39.5C77,18.787,60.211,2,39.502,2C18.791,2,2,18.787,2,39.5z M26.725,34.371l3.939,2.273
    M30.664,36.645v4.547 M30.664,36.645l-7.482,4.32 M30.664,21.912v4.549 M30.664,26.461l-3.939,2.273 M30.664,26.461
    l-7.482-4.318 M43.42,19.096l-3.939,2.273 M39.48,21.369l-3.938-2.275 M39.48,21.369v-8.643 M52.242,28.734l-3.943-2.273
    M48.299,26.461v-4.549 M48.299,26.461l7.482-4.318 M48.299,41.191v-4.547 M48.299,36.645l3.943-2.273 M48.299,36.645
    l7.482,4.32 M35.543,44.012l3.938-2.273 M39.48,41.738l8.818-5.096 M30.664,36.645l8.816,5.094 M39.48,41.738l3.939,2.273
    M30.664,26.461v10.184 M39.48,21.369l-8.816,5.092 M48.299,26.461l-8.818-5.092 M48.299,36.645V26.461 M39.48,41.738v8.635"/>

</g>

</svg>
