<?xml version="1.0" encoding="utf-8"?>
<!-- Generator: Adobe Illustrator 16.0.4, SVG Export Plug-In . SVG Version: 6.00 Build 0)  -->
<!DOCTYPE svg PUBLIC "-//W3C//DTD SVG 1.1//EN" "http://www.w3.org/Graphics/SVG/1.1/DTD/svg11.dtd">
<svg version="1.1" id="Layer_1" xmlns="http://www.w3.org/2000/svg" xmlns:xlink="http://www.w3.org/1999/xlink" x="0px" y="0px"
	 width="54px" height="54px" viewBox="0 0 54 54" enable-background="new 0 0 54 54" xml:space="preserve">

     
<g id="off">
	<circle fill="#EE2958" stroke="#FCF9E5" stroke-width="4" stroke-linecap="round" stroke-linejoin="round" stroke-miterlimit="10" cx="27" cy="27" r="25"/>

    <path fill="#FCF9E5" d="M25.002,26.899c0,0,0.049-0.342,0.133-0.939c0.021-0.15,0.045-0.316,0.071-0.497
			c0.047-0.213,0.097-0.444,0.151-0.69c0.107-0.493,0.231-1.047,0.436-1.58c0.096-0.272,0.195-0.557,0.297-0.851
			c0.13-0.282,0.264-0.574,0.401-0.874c0.25-0.607,0.647-1.185,0.995-1.798c0.424-0.572,0.818-1.185,1.331-1.719
			c0.466-0.569,1.034-1.059,1.571-1.561c0.591-0.448,1.154-0.915,1.783-1.272c0.594-0.403,1.248-0.68,1.847-0.984
			c0.64-0.229,1.226-0.506,1.829-0.639c0.295-0.079,0.581-0.155,0.858-0.23c0.282-0.047,0.556-0.092,0.817-0.136
			c0.518-0.104,1.002-0.126,1.428-0.149c0.424-0.038,0.793-0.042,1.098-0.018C40.654,12.986,41,13,41,13s-0.341,0.049-0.938,0.133
			c-0.299,0.031-0.654,0.1-1.057,0.212c-0.403,0.098-0.856,0.2-1.329,0.391c-0.237,0.085-0.483,0.174-0.739,0.266
			c-0.244,0.117-0.498,0.237-0.758,0.361c-0.528,0.219-1.023,0.58-1.556,0.884c-0.491,0.38-1.022,0.723-1.479,1.178
			c-0.492,0.409-0.906,0.913-1.34,1.382c-0.379,0.521-0.781,1.011-1.082,1.562c-0.346,0.516-0.57,1.09-0.832,1.607
			c-0.184,0.559-0.424,1.063-0.526,1.587c-0.065,0.255-0.128,0.502-0.19,0.741c-0.035,0.244-0.07,0.48-0.104,0.706
			c-0.089,0.458-0.091,0.843-0.104,1.178c-0.009,0.167-0.018,0.324-0.025,0.469c0.008,0.181,0.014,0.348,0.02,0.498
			c0.024,0.603,0.039,0.947,0.039,0.947c0.044,1.108-0.818,2.043-1.926,2.088c-1.108,0.045-2.043-0.817-2.087-1.926
			C24.979,27.144,24.987,27.014,25.002,26.899z"/>
		<path fill="#FCF9E5" d="M28.09,25.316c0,0,0.271,0.213,0.746,0.586c0.119,0.093,0.252,0.197,0.395,0.31
			c0.162,0.147,0.336,0.307,0.523,0.477c0.373,0.34,0.791,0.723,1.149,1.167c0.188,0.219,0.385,0.447,0.588,0.683
			c0.18,0.254,0.366,0.516,0.557,0.785c0.401,0.52,0.702,1.153,1.06,1.761c0.283,0.653,0.617,1.301,0.823,2.012
			c0.26,0.688,0.399,1.425,0.565,2.142c0.094,0.735,0.215,1.457,0.211,2.18c0.053,0.716-0.035,1.421-0.07,2.092
			c-0.123,0.668-0.176,1.314-0.362,1.903c-0.079,0.295-0.155,0.581-0.229,0.858c-0.101,0.269-0.197,0.527-0.291,0.776
			c-0.168,0.5-0.393,0.931-0.584,1.311c-0.179,0.387-0.36,0.707-0.533,0.96c-0.324,0.511-0.508,0.803-0.508,0.803
			s0.128-0.319,0.354-0.879c0.122-0.273,0.24-0.616,0.345-1.021c0.117-0.398,0.255-0.842,0.326-1.347
			c0.044-0.247,0.091-0.506,0.14-0.772c0.021-0.271,0.043-0.55,0.066-0.837c0.074-0.567,0.008-1.176,0.012-1.789
			c-0.084-0.615-0.115-1.247-0.28-1.871c-0.108-0.63-0.338-1.241-0.526-1.85c-0.262-0.59-0.484-1.184-0.812-1.718
			c-0.273-0.558-0.658-1.04-0.977-1.524c-0.391-0.438-0.708-0.899-1.11-1.25c-0.188-0.184-0.37-0.362-0.548-0.535
			c-0.192-0.153-0.379-0.302-0.559-0.444c-0.352-0.306-0.684-0.499-0.967-0.679c-0.141-0.091-0.272-0.177-0.393-0.256
			c-0.161-0.085-0.308-0.162-0.441-0.232c-0.535-0.28-0.84-0.44-0.84-0.44c-0.982-0.516-1.36-1.729-0.845-2.712
			c0.515-0.982,1.729-1.36,2.711-0.845C27.89,25.175,27.998,25.246,28.09,25.316z"/>
		<path fill="#FCF9E5" d="M25.917,28.676c0,0-0.271-0.213-0.747-0.586c-0.119-0.093-0.251-0.197-0.395-0.31
			c-0.161-0.147-0.336-0.307-0.522-0.477c-0.374-0.34-0.791-0.723-1.15-1.167c-0.188-0.219-0.385-0.447-0.588-0.684
			c-0.18-0.253-0.366-0.515-0.557-0.784c-0.401-0.521-0.702-1.153-1.06-1.761c-0.284-0.653-0.617-1.301-0.823-2.012
			c-0.26-0.688-0.399-1.425-0.565-2.142c-0.094-0.735-0.216-1.457-0.211-2.18c-0.053-0.716,0.035-1.421,0.07-2.092
			c0.123-0.668,0.175-1.314,0.362-1.903c0.079-0.295,0.156-0.581,0.23-0.858c0.101-0.269,0.198-0.527,0.291-0.776
			c0.168-0.5,0.393-0.931,0.584-1.311c0.179-0.387,0.36-0.707,0.534-0.96c0.323-0.511,0.508-0.803,0.508-0.803
			s-0.128,0.319-0.354,0.879c-0.123,0.273-0.241,0.616-0.345,1.021c-0.117,0.398-0.254,0.842-0.326,1.347
			c-0.044,0.247-0.091,0.506-0.139,0.772c-0.021,0.271-0.043,0.55-0.066,0.837c-0.074,0.567-0.009,1.176-0.012,1.789
			c0.083,0.615,0.115,1.247,0.28,1.87c0.108,0.631,0.338,1.242,0.527,1.851c0.262,0.59,0.484,1.184,0.812,1.718
			c0.274,0.558,0.659,1.04,0.977,1.524c0.392,0.438,0.708,0.899,1.111,1.25c0.188,0.184,0.371,0.362,0.547,0.535
			c0.193,0.153,0.38,0.302,0.559,0.444c0.352,0.306,0.684,0.499,0.967,0.679c0.141,0.091,0.272,0.177,0.393,0.256
			c0.161,0.085,0.308,0.162,0.441,0.232c0.535,0.28,0.84,0.44,0.84,0.44c0.982,0.516,1.361,1.729,0.846,2.712
			s-1.729,1.36-2.712,0.845C26.118,28.817,26.009,28.746,25.917,28.676z"/>
		<path fill="#FCF9E5" d="M27.915,28.776c0,0-0.32,0.129-0.88,0.354c-0.141,0.056-0.296,0.118-0.466,0.187
			c-0.208,0.066-0.434,0.138-0.674,0.214c-0.481,0.154-1.022,0.324-1.586,0.412c-0.284,0.054-0.579,0.11-0.885,0.168
			c-0.31,0.029-0.629,0.059-0.958,0.09c-0.651,0.088-1.35,0.031-2.055,0.037c-0.708-0.081-1.435-0.116-2.154-0.293
			c-0.726-0.119-1.434-0.367-2.137-0.582c-0.684-0.286-1.37-0.541-1.994-0.907c-0.646-0.312-1.213-0.741-1.776-1.106
			c-0.518-0.44-1.05-0.81-1.467-1.266c-0.216-0.216-0.425-0.425-0.628-0.628c-0.182-0.222-0.358-0.435-0.527-0.64
			c-0.349-0.396-0.61-0.806-0.843-1.162c-0.245-0.348-0.432-0.666-0.564-0.942c-0.281-0.535-0.441-0.841-0.441-0.841
			s0.212,0.271,0.584,0.746c0.175,0.242,0.413,0.517,0.711,0.809c0.286,0.301,0.602,0.642,1.003,0.956
			c0.192,0.162,0.393,0.332,0.6,0.507c0.223,0.154,0.454,0.312,0.691,0.476c0.454,0.349,1.015,0.597,1.543,0.906
			c0.575,0.235,1.138,0.524,1.761,0.692c0.6,0.222,1.244,0.328,1.866,0.469c0.641,0.068,1.267,0.173,1.894,0.156
			c0.62,0.041,1.229-0.051,1.809-0.083c0.576-0.12,1.133-0.164,1.638-0.337c0.253-0.071,0.499-0.14,0.737-0.207
			c0.229-0.09,0.451-0.178,0.664-0.262c0.441-0.151,0.774-0.343,1.072-0.498c0.149-0.076,0.29-0.147,0.419-0.213
			c0.153-0.097,0.294-0.186,0.421-0.266c0.51-0.322,0.802-0.507,0.802-0.507c0.938-0.593,2.178-0.313,2.771,0.624
			s0.313,2.178-0.623,2.771C28.139,28.675,28.022,28.732,27.915,28.776z"/>
		<path fill="#FCF9E5" d="M28.998,27.101c0,0-0.049,0.342-0.134,0.939c-0.021,0.15-0.046,0.316-0.071,0.497
			c-0.047,0.213-0.098,0.444-0.151,0.69c-0.107,0.493-0.231,1.047-0.437,1.58c-0.096,0.272-0.194,0.557-0.297,0.851
			c-0.13,0.282-0.264,0.574-0.401,0.874c-0.25,0.607-0.647,1.185-0.995,1.798c-0.424,0.572-0.818,1.185-1.331,1.719
			c-0.466,0.569-1.035,1.059-1.572,1.561c-0.59,0.448-1.154,0.915-1.782,1.272c-0.594,0.403-1.249,0.68-1.847,0.984
			c-0.64,0.229-1.226,0.506-1.829,0.639c-0.294,0.079-0.581,0.155-0.858,0.23c-0.282,0.047-0.555,0.092-0.817,0.136
			c-0.518,0.104-1.002,0.126-1.428,0.149c-0.423,0.038-0.792,0.042-1.098,0.018C13.345,41.014,13,41,13,41s0.341-0.049,0.938-0.133
			c0.298-0.031,0.654-0.1,1.056-0.212c0.403-0.098,0.856-0.2,1.329-0.391c0.237-0.085,0.484-0.174,0.739-0.266
			c0.245-0.117,0.498-0.237,0.758-0.361c0.528-0.219,1.023-0.58,1.556-0.884c0.491-0.38,1.022-0.723,1.48-1.178
			c0.492-0.409,0.906-0.913,1.339-1.382c0.379-0.521,0.782-1.011,1.082-1.562c0.346-0.516,0.571-1.09,0.832-1.607
			c0.184-0.559,0.424-1.063,0.527-1.587c0.065-0.255,0.128-0.502,0.19-0.741c0.036-0.244,0.071-0.48,0.105-0.706
			c0.089-0.458,0.09-0.843,0.104-1.178c0.009-0.167,0.018-0.324,0.025-0.469c-0.007-0.181-0.013-0.348-0.019-0.498
			c-0.024-0.603-0.039-0.947-0.039-0.947c-0.044-1.108,0.817-2.043,1.926-2.088c1.109-0.045,2.042,0.817,2.087,1.926
			C29.021,26.856,29.014,26.986,28.998,27.101z"/>
		<path fill="#FCF9E5" d="M26.093,25.216c0,0,0.32-0.129,0.88-0.354c0.141-0.056,0.296-0.118,0.466-0.187
			c0.208-0.066,0.433-0.138,0.674-0.215c0.481-0.153,1.022-0.323,1.586-0.411c0.284-0.054,0.579-0.11,0.886-0.168
			c0.309-0.029,0.629-0.059,0.957-0.09c0.652-0.088,1.35-0.031,2.055-0.037c0.708,0.081,1.436,0.116,2.154,0.293
			c0.727,0.119,1.434,0.367,2.137,0.582c0.684,0.286,1.371,0.542,1.994,0.907c0.646,0.312,1.213,0.741,1.775,1.106
			c0.518,0.44,1.051,0.81,1.468,1.266c0.216,0.216,0.426,0.426,0.628,0.628c0.183,0.222,0.358,0.435,0.527,0.64
			c0.35,0.396,0.609,0.806,0.844,1.162c0.244,0.348,0.432,0.666,0.563,0.942c0.28,0.535,0.441,0.841,0.441,0.841
			s-0.212-0.271-0.585-0.746c-0.175-0.242-0.412-0.517-0.711-0.809c-0.285-0.301-0.602-0.642-1.002-0.956
			c-0.193-0.162-0.393-0.332-0.601-0.507c-0.224-0.154-0.454-0.312-0.69-0.476c-0.455-0.349-1.015-0.597-1.543-0.906
			c-0.576-0.235-1.139-0.523-1.762-0.692c-0.6-0.221-1.243-0.328-1.865-0.469c-0.641-0.068-1.267-0.173-1.893-0.156
			c-0.621-0.041-1.23,0.051-1.809,0.083c-0.576,0.12-1.133,0.164-1.639,0.337c-0.252,0.071-0.498,0.14-0.736,0.206
			c-0.229,0.091-0.451,0.179-0.664,0.263c-0.441,0.151-0.774,0.343-1.072,0.498c-0.148,0.076-0.289,0.147-0.418,0.213
			c-0.154,0.097-0.295,0.186-0.422,0.266c-0.51,0.322-0.802,0.507-0.802,0.507c-0.937,0.593-2.178,0.313-2.771-0.624
			s-0.314-2.178,0.624-2.771C25.87,25.317,25.985,25.26,26.093,25.216z"/>
</g>


<g id="off-hover">
		<circle fill="#EE2958" stroke="#0383F8" stroke-width="4" stroke-linecap="round" stroke-linejoin="round" stroke-miterlimit="10" cx="27" cy="27" r="25"/>

        <path fill="#0383F8" d="M25.002,26.899c0,0,0.049-0.342,0.133-0.939c0.021-0.15,0.045-0.316,0.071-0.497
			c0.047-0.213,0.097-0.444,0.151-0.69c0.107-0.493,0.231-1.047,0.436-1.58c0.096-0.272,0.195-0.557,0.297-0.851
			c0.13-0.282,0.264-0.574,0.401-0.874c0.25-0.607,0.647-1.185,0.995-1.798c0.424-0.572,0.818-1.185,1.331-1.719
			c0.466-0.569,1.034-1.059,1.571-1.561c0.591-0.448,1.154-0.915,1.783-1.272c0.594-0.403,1.248-0.68,1.847-0.984
			c0.64-0.229,1.226-0.506,1.829-0.639c0.295-0.079,0.581-0.155,0.858-0.23c0.282-0.047,0.556-0.092,0.817-0.136
			c0.518-0.104,1.002-0.126,1.428-0.149c0.424-0.038,0.793-0.042,1.098-0.018C40.654,12.986,41,13,41,13s-0.341,0.049-0.938,0.133
			c-0.299,0.031-0.654,0.1-1.057,0.212c-0.403,0.098-0.856,0.2-1.329,0.391c-0.237,0.085-0.483,0.174-0.739,0.266
			c-0.244,0.117-0.498,0.237-0.758,0.361c-0.528,0.219-1.023,0.58-1.556,0.884c-0.491,0.38-1.022,0.723-1.479,1.178
			c-0.492,0.409-0.906,0.913-1.34,1.382c-0.379,0.521-0.781,1.011-1.082,1.562c-0.346,0.516-0.57,1.09-0.832,1.607
			c-0.184,0.559-0.424,1.063-0.526,1.587c-0.065,0.255-0.128,0.502-0.19,0.741c-0.035,0.244-0.07,0.48-0.104,0.706
			c-0.089,0.458-0.091,0.843-0.104,1.178c-0.009,0.167-0.018,0.324-0.025,0.469c0.008,0.181,0.014,0.348,0.02,0.498
			c0.024,0.603,0.039,0.947,0.039,0.947c0.044,1.108-0.818,2.043-1.926,2.088c-1.108,0.045-2.043-0.817-2.087-1.926
			C24.979,27.144,24.987,27.014,25.002,26.899z"/>
		<path fill="#0383F8" d="M28.09,25.316c0,0,0.271,0.213,0.746,0.586c0.119,0.093,0.252,0.197,0.395,0.31
			c0.162,0.147,0.336,0.307,0.523,0.477c0.373,0.34,0.791,0.723,1.149,1.167c0.188,0.219,0.385,0.447,0.588,0.683
			c0.18,0.254,0.366,0.516,0.557,0.785c0.401,0.52,0.702,1.153,1.06,1.761c0.283,0.653,0.617,1.301,0.823,2.012
			c0.26,0.688,0.399,1.425,0.565,2.142c0.094,0.735,0.215,1.457,0.211,2.18c0.053,0.716-0.035,1.421-0.07,2.092
			c-0.123,0.668-0.176,1.314-0.362,1.903c-0.079,0.295-0.155,0.581-0.229,0.858c-0.101,0.269-0.197,0.527-0.291,0.776
			c-0.168,0.5-0.393,0.931-0.584,1.311c-0.179,0.387-0.36,0.707-0.533,0.96c-0.324,0.511-0.508,0.803-0.508,0.803
			s0.128-0.319,0.354-0.879c0.122-0.273,0.24-0.616,0.345-1.021c0.117-0.398,0.255-0.842,0.326-1.347
			c0.044-0.247,0.091-0.506,0.14-0.772c0.021-0.271,0.043-0.55,0.066-0.837c0.074-0.567,0.008-1.176,0.012-1.789
			c-0.084-0.615-0.115-1.247-0.28-1.871c-0.108-0.63-0.338-1.241-0.526-1.85c-0.262-0.59-0.484-1.184-0.812-1.718
			c-0.273-0.558-0.658-1.04-0.977-1.524c-0.391-0.438-0.708-0.899-1.11-1.25c-0.188-0.184-0.37-0.362-0.548-0.535
			c-0.192-0.153-0.379-0.302-0.559-0.444c-0.352-0.306-0.684-0.499-0.967-0.679c-0.141-0.091-0.272-0.177-0.393-0.256
			c-0.161-0.085-0.308-0.162-0.441-0.232c-0.535-0.28-0.84-0.44-0.84-0.44c-0.982-0.516-1.36-1.729-0.845-2.712
			c0.515-0.982,1.729-1.36,2.711-0.845C27.89,25.175,27.998,25.246,28.09,25.316z"/>
		<path fill="#0383F8" d="M25.917,28.676c0,0-0.271-0.213-0.747-0.586c-0.119-0.093-0.251-0.197-0.395-0.31
			c-0.161-0.147-0.336-0.307-0.522-0.477c-0.374-0.34-0.791-0.723-1.15-1.167c-0.188-0.219-0.385-0.447-0.588-0.684
			c-0.18-0.253-0.366-0.515-0.557-0.784c-0.401-0.521-0.702-1.153-1.06-1.761c-0.284-0.653-0.617-1.301-0.823-2.012
			c-0.26-0.688-0.399-1.425-0.565-2.142c-0.094-0.735-0.216-1.457-0.211-2.18c-0.053-0.716,0.035-1.421,0.07-2.092
			c0.123-0.668,0.175-1.314,0.362-1.903c0.079-0.295,0.156-0.581,0.23-0.858c0.101-0.269,0.198-0.527,0.291-0.776
			c0.168-0.5,0.393-0.931,0.584-1.311c0.179-0.387,0.36-0.707,0.534-0.96c0.323-0.511,0.508-0.803,0.508-0.803
			s-0.128,0.319-0.354,0.879c-0.123,0.273-0.241,0.616-0.345,1.021c-0.117,0.398-0.254,0.842-0.326,1.347
			c-0.044,0.247-0.091,0.506-0.139,0.772c-0.021,0.271-0.043,0.55-0.066,0.837c-0.074,0.567-0.009,1.176-0.012,1.789
			c0.083,0.615,0.115,1.247,0.28,1.87c0.108,0.631,0.338,1.242,0.527,1.851c0.262,0.59,0.484,1.184,0.812,1.718
			c0.274,0.558,0.659,1.04,0.977,1.524c0.392,0.438,0.708,0.899,1.111,1.25c0.188,0.184,0.371,0.362,0.547,0.535
			c0.193,0.153,0.38,0.302,0.559,0.444c0.352,0.306,0.684,0.499,0.967,0.679c0.141,0.091,0.272,0.177,0.393,0.256
			c0.161,0.085,0.308,0.162,0.441,0.232c0.535,0.28,0.84,0.44,0.84,0.44c0.982,0.516,1.361,1.729,0.846,2.712
			s-1.729,1.36-2.712,0.845C26.118,28.817,26.009,28.746,25.917,28.676z"/>
		<path fill="#0383F8" d="M27.915,28.776c0,0-0.32,0.129-0.88,0.354c-0.141,0.056-0.296,0.118-0.466,0.187
			c-0.208,0.066-0.434,0.138-0.674,0.214c-0.481,0.154-1.022,0.324-1.586,0.412c-0.284,0.054-0.579,0.11-0.885,0.168
			c-0.31,0.029-0.629,0.059-0.958,0.09c-0.651,0.088-1.35,0.031-2.055,0.037c-0.708-0.081-1.435-0.116-2.154-0.293
			c-0.726-0.119-1.434-0.367-2.137-0.582c-0.684-0.286-1.37-0.541-1.994-0.907c-0.646-0.312-1.213-0.741-1.776-1.106
			c-0.518-0.44-1.05-0.81-1.467-1.266c-0.216-0.216-0.425-0.425-0.628-0.628c-0.182-0.222-0.358-0.435-0.527-0.64
			c-0.349-0.396-0.61-0.806-0.843-1.162c-0.245-0.348-0.432-0.666-0.564-0.942c-0.281-0.535-0.441-0.841-0.441-0.841
			s0.212,0.271,0.584,0.746c0.175,0.242,0.413,0.517,0.711,0.809c0.286,0.301,0.602,0.642,1.003,0.956
			c0.192,0.162,0.393,0.332,0.6,0.507c0.223,0.154,0.454,0.312,0.691,0.476c0.454,0.349,1.015,0.597,1.543,0.906
			c0.575,0.235,1.138,0.524,1.761,0.692c0.6,0.222,1.244,0.328,1.866,0.469c0.641,0.068,1.267,0.173,1.894,0.156
			c0.62,0.041,1.229-0.051,1.809-0.083c0.576-0.12,1.133-0.164,1.638-0.337c0.253-0.071,0.499-0.14,0.737-0.207
			c0.229-0.09,0.451-0.178,0.664-0.262c0.441-0.151,0.774-0.343,1.072-0.498c0.149-0.076,0.29-0.147,0.419-0.213
			c0.153-0.097,0.294-0.186,0.421-0.266c0.51-0.322,0.802-0.507,0.802-0.507c0.938-0.593,2.178-0.313,2.771,0.624
			s0.313,2.178-0.623,2.771C28.139,28.675,28.022,28.732,27.915,28.776z"/>
		<path fill="#0383F8" d="M28.998,27.101c0,0-0.049,0.342-0.134,0.939c-0.021,0.15-0.046,0.316-0.071,0.497
			c-0.047,0.213-0.098,0.444-0.151,0.69c-0.107,0.493-0.231,1.047-0.437,1.58c-0.096,0.272-0.194,0.557-0.297,0.851
			c-0.13,0.282-0.264,0.574-0.401,0.874c-0.25,0.607-0.647,1.185-0.995,1.798c-0.424,0.572-0.818,1.185-1.331,1.719
			c-0.466,0.569-1.035,1.059-1.572,1.561c-0.59,0.448-1.154,0.915-1.782,1.272c-0.594,0.403-1.249,0.68-1.847,0.984
			c-0.64,0.229-1.226,0.506-1.829,0.639c-0.294,0.079-0.581,0.155-0.858,0.23c-0.282,0.047-0.555,0.092-0.817,0.136
			c-0.518,0.104-1.002,0.126-1.428,0.149c-0.423,0.038-0.792,0.042-1.098,0.018C13.345,41.014,13,41,13,41s0.341-0.049,0.938-0.133
			c0.298-0.031,0.654-0.1,1.056-0.212c0.403-0.098,0.856-0.2,1.329-0.391c0.237-0.085,0.484-0.174,0.739-0.266
			c0.245-0.117,0.498-0.237,0.758-0.361c0.528-0.219,1.023-0.58,1.556-0.884c0.491-0.38,1.022-0.723,1.48-1.178
			c0.492-0.409,0.906-0.913,1.339-1.382c0.379-0.521,0.782-1.011,1.082-1.562c0.346-0.516,0.571-1.09,0.832-1.607
			c0.184-0.559,0.424-1.063,0.527-1.587c0.065-0.255,0.128-0.502,0.19-0.741c0.036-0.244,0.071-0.48,0.105-0.706
			c0.089-0.458,0.09-0.843,0.104-1.178c0.009-0.167,0.018-0.324,0.025-0.469c-0.007-0.181-0.013-0.348-0.019-0.498
			c-0.024-0.603-0.039-0.947-0.039-0.947c-0.044-1.108,0.817-2.043,1.926-2.088c1.109-0.045,2.042,0.817,2.087,1.926
			C29.021,26.856,29.014,26.986,28.998,27.101z"/>
		<path fill="#0383F8" d="M26.093,25.216c0,0,0.32-0.129,0.88-0.354c0.141-0.056,0.296-0.118,0.466-0.187
			c0.208-0.066,0.433-0.138,0.674-0.215c0.481-0.153,1.022-0.323,1.586-0.411c0.284-0.054,0.579-0.11,0.886-0.168
			c0.309-0.029,0.629-0.059,0.957-0.09c0.652-0.088,1.35-0.031,2.055-0.037c0.708,0.081,1.436,0.116,2.154,0.293
			c0.727,0.119,1.434,0.367,2.137,0.582c0.684,0.286,1.371,0.542,1.994,0.907c0.646,0.312,1.213,0.741,1.775,1.106
			c0.518,0.44,1.051,0.81,1.468,1.266c0.216,0.216,0.426,0.426,0.628,0.628c0.183,0.222,0.358,0.435,0.527,0.64
			c0.35,0.396,0.609,0.806,0.844,1.162c0.244,0.348,0.432,0.666,0.563,0.942c0.28,0.535,0.441,0.841,0.441,0.841
			s-0.212-0.271-0.585-0.746c-0.175-0.242-0.412-0.517-0.711-0.809c-0.285-0.301-0.602-0.642-1.002-0.956
			c-0.193-0.162-0.393-0.332-0.601-0.507c-0.224-0.154-0.454-0.312-0.69-0.476c-0.455-0.349-1.015-0.597-1.543-0.906
			c-0.576-0.235-1.139-0.523-1.762-0.692c-0.6-0.221-1.243-0.328-1.865-0.469c-0.641-0.068-1.267-0.173-1.893-0.156
			c-0.621-0.041-1.23,0.051-1.809,0.083c-0.576,0.12-1.133,0.164-1.639,0.337c-0.252,0.071-0.498,0.14-0.736,0.206
			c-0.229,0.091-0.451,0.179-0.664,0.263c-0.441,0.151-0.774,0.343-1.072,0.498c-0.148,0.076-0.289,0.147-0.418,0.213
			c-0.154,0.097-0.295,0.186-0.422,0.266c-0.51,0.322-0.802,0.507-0.802,0.507c-0.937,0.593-2.178,0.313-2.771-0.624
			s-0.314-2.178,0.624-2.771C25.87,25.317,25.985,25.26,26.093,25.216z"/>
</g>


<g id="on">
		<circle fill="#2C4276" stroke="#FCF9E5" stroke-width="4" stroke-linecap="round" stroke-linejoin="round" stroke-miterlimit="10" cx="27" cy="27" r="25"/>
 
        <path fill="#FCF9E5" d="M25.002,26.899c0,0,0.049-0.342,0.133-0.939c0.021-0.15,0.045-0.316,0.071-0.497
			c0.047-0.213,0.097-0.444,0.151-0.69c0.107-0.493,0.231-1.047,0.436-1.58c0.096-0.272,0.195-0.557,0.297-0.851
			c0.13-0.282,0.264-0.574,0.401-0.874c0.25-0.607,0.647-1.185,0.995-1.798c0.424-0.572,0.818-1.185,1.331-1.719
			c0.466-0.569,1.034-1.059,1.571-1.561c0.591-0.448,1.154-0.915,1.783-1.272c0.594-0.403,1.248-0.68,1.847-0.984
			c0.64-0.229,1.226-0.506,1.829-0.639c0.295-0.079,0.581-0.155,0.858-0.23c0.282-0.047,0.556-0.092,0.817-0.136
			c0.518-0.104,1.002-0.126,1.428-0.149c0.424-0.038,0.793-0.042,1.098-0.018C40.654,12.986,41,13,41,13s-0.341,0.049-0.938,0.133
			c-0.299,0.031-0.654,0.1-1.057,0.212c-0.403,0.098-0.856,0.2-1.329,0.391c-0.237,0.085-0.483,0.174-0.739,0.266
			c-0.244,0.117-0.498,0.237-0.758,0.361c-0.528,0.219-1.023,0.58-1.556,0.884c-0.491,0.38-1.022,0.723-1.479,1.178
			c-0.492,0.409-0.906,0.913-1.34,1.382c-0.379,0.521-0.781,1.011-1.082,1.562c-0.346,0.516-0.57,1.09-0.832,1.607
			c-0.184,0.559-0.424,1.063-0.526,1.587c-0.065,0.255-0.128,0.502-0.19,0.741c-0.035,0.244-0.07,0.48-0.104,0.706
			c-0.089,0.458-0.091,0.843-0.104,1.178c-0.009,0.167-0.018,0.324-0.025,0.469c0.008,0.181,0.014,0.348,0.02,0.498
			c0.024,0.603,0.039,0.947,0.039,0.947c0.044,1.108-0.818,2.043-1.926,2.088c-1.108,0.045-2.043-0.817-2.087-1.926
			C24.979,27.144,24.987,27.014,25.002,26.899z"/>
		<path fill="#FCF9E5" d="M28.09,25.316c0,0,0.271,0.213,0.746,0.586c0.119,0.093,0.252,0.197,0.395,0.31
			c0.162,0.147,0.336,0.307,0.523,0.477c0.373,0.34,0.791,0.723,1.149,1.167c0.188,0.219,0.385,0.447,0.588,0.683
			c0.18,0.254,0.366,0.516,0.557,0.785c0.401,0.52,0.702,1.153,1.06,1.761c0.283,0.653,0.617,1.301,0.823,2.012
			c0.26,0.688,0.399,1.425,0.565,2.142c0.094,0.735,0.215,1.457,0.211,2.18c0.053,0.716-0.035,1.421-0.07,2.092
			c-0.123,0.668-0.176,1.314-0.362,1.903c-0.079,0.295-0.155,0.581-0.229,0.858c-0.101,0.269-0.197,0.527-0.291,0.776
			c-0.168,0.5-0.393,0.931-0.584,1.311c-0.179,0.387-0.36,0.707-0.533,0.96c-0.324,0.511-0.508,0.803-0.508,0.803
			s0.128-0.319,0.354-0.879c0.122-0.273,0.24-0.616,0.345-1.021c0.117-0.398,0.255-0.842,0.326-1.347
			c0.044-0.247,0.091-0.506,0.14-0.772c0.021-0.271,0.043-0.55,0.066-0.837c0.074-0.567,0.008-1.176,0.012-1.789
			c-0.084-0.615-0.115-1.247-0.28-1.871c-0.108-0.63-0.338-1.241-0.526-1.85c-0.262-0.59-0.484-1.184-0.812-1.718
			c-0.273-0.558-0.658-1.04-0.977-1.524c-0.391-0.438-0.708-0.899-1.11-1.25c-0.188-0.184-0.37-0.362-0.548-0.535
			c-0.192-0.153-0.379-0.302-0.559-0.444c-0.352-0.306-0.684-0.499-0.967-0.679c-0.141-0.091-0.272-0.177-0.393-0.256
			c-0.161-0.085-0.308-0.162-0.441-0.232c-0.535-0.28-0.84-0.44-0.84-0.44c-0.982-0.516-1.36-1.729-0.845-2.712
			c0.515-0.982,1.729-1.36,2.711-0.845C27.89,25.175,27.998,25.246,28.09,25.316z"/>
		<path fill="#FCF9E5" d="M25.917,28.676c0,0-0.271-0.213-0.747-0.586c-0.119-0.093-0.251-0.197-0.395-0.31
			c-0.161-0.147-0.336-0.307-0.522-0.477c-0.374-0.34-0.791-0.723-1.15-1.167c-0.188-0.219-0.385-0.447-0.588-0.684
			c-0.18-0.253-0.366-0.515-0.557-0.784c-0.401-0.521-0.702-1.153-1.06-1.761c-0.284-0.653-0.617-1.301-0.823-2.012
			c-0.26-0.688-0.399-1.425-0.565-2.142c-0.094-0.735-0.216-1.457-0.211-2.18c-0.053-0.716,0.035-1.421,0.07-2.092
			c0.123-0.668,0.175-1.314,0.362-1.903c0.079-0.295,0.156-0.581,0.23-0.858c0.101-0.269,0.198-0.527,0.291-0.776
			c0.168-0.5,0.393-0.931,0.584-1.311c0.179-0.387,0.36-0.707,0.534-0.96c0.323-0.511,0.508-0.803,0.508-0.803
			s-0.128,0.319-0.354,0.879c-0.123,0.273-0.241,0.616-0.345,1.021c-0.117,0.398-0.254,0.842-0.326,1.347
			c-0.044,0.247-0.091,0.506-0.139,0.772c-0.021,0.271-0.043,0.55-0.066,0.837c-0.074,0.567-0.009,1.176-0.012,1.789
			c0.083,0.615,0.115,1.247,0.28,1.87c0.108,0.631,0.338,1.242,0.527,1.851c0.262,0.59,0.484,1.184,0.812,1.718
			c0.274,0.558,0.659,1.04,0.977,1.524c0.392,0.438,0.708,0.899,1.111,1.25c0.188,0.184,0.371,0.362,0.547,0.535
			c0.193,0.153,0.38,0.302,0.559,0.444c0.352,0.306,0.684,0.499,0.967,0.679c0.141,0.091,0.272,0.177,0.393,0.256
			c0.161,0.085,0.308,0.162,0.441,0.232c0.535,0.28,0.84,0.44,0.84,0.44c0.982,0.516,1.361,1.729,0.846,2.712
			s-1.729,1.36-2.712,0.845C26.118,28.817,26.009,28.746,25.917,28.676z"/>
		<path fill="#FCF9E5" d="M27.915,28.776c0,0-0.32,0.129-0.88,0.354c-0.141,0.056-0.296,0.118-0.466,0.187
			c-0.208,0.066-0.434,0.138-0.674,0.214c-0.481,0.154-1.022,0.324-1.586,0.412c-0.284,0.054-0.579,0.11-0.885,0.168
			c-0.31,0.029-0.629,0.059-0.958,0.09c-0.651,0.088-1.35,0.031-2.055,0.037c-0.708-0.081-1.435-0.116-2.154-0.293
			c-0.726-0.119-1.434-0.367-2.137-0.582c-0.684-0.286-1.37-0.541-1.994-0.907c-0.646-0.312-1.213-0.741-1.776-1.106
			c-0.518-0.44-1.05-0.81-1.467-1.266c-0.216-0.216-0.425-0.425-0.628-0.628c-0.182-0.222-0.358-0.435-0.527-0.64
			c-0.349-0.396-0.61-0.806-0.843-1.162c-0.245-0.348-0.432-0.666-0.564-0.942c-0.281-0.535-0.441-0.841-0.441-0.841
			s0.212,0.271,0.584,0.746c0.175,0.242,0.413,0.517,0.711,0.809c0.286,0.301,0.602,0.642,1.003,0.956
			c0.192,0.162,0.393,0.332,0.6,0.507c0.223,0.154,0.454,0.312,0.691,0.476c0.454,0.349,1.015,0.597,1.543,0.906
			c0.575,0.235,1.138,0.524,1.761,0.692c0.6,0.222,1.244,0.328,1.866,0.469c0.641,0.068,1.267,0.173,1.894,0.156
			c0.62,0.041,1.229-0.051,1.809-0.083c0.576-0.12,1.133-0.164,1.638-0.337c0.253-0.071,0.499-0.14,0.737-0.207
			c0.229-0.09,0.451-0.178,0.664-0.262c0.441-0.151,0.774-0.343,1.072-0.498c0.149-0.076,0.29-0.147,0.419-0.213
			c0.153-0.097,0.294-0.186,0.421-0.266c0.51-0.322,0.802-0.507,0.802-0.507c0.938-0.593,2.178-0.313,2.771,0.624
			s0.313,2.178-0.623,2.771C28.139,28.675,28.022,28.732,27.915,28.776z"/>
		<path fill="#FCF9E5" d="M28.998,27.101c0,0-0.049,0.342-0.134,0.939c-0.021,0.15-0.046,0.316-0.071,0.497
			c-0.047,0.213-0.098,0.444-0.151,0.69c-0.107,0.493-0.231,1.047-0.437,1.58c-0.096,0.272-0.194,0.557-0.297,0.851
			c-0.13,0.282-0.264,0.574-0.401,0.874c-0.25,0.607-0.647,1.185-0.995,1.798c-0.424,0.572-0.818,1.185-1.331,1.719
			c-0.466,0.569-1.035,1.059-1.572,1.561c-0.59,0.448-1.154,0.915-1.782,1.272c-0.594,0.403-1.249,0.68-1.847,0.984
			c-0.64,0.229-1.226,0.506-1.829,0.639c-0.294,0.079-0.581,0.155-0.858,0.23c-0.282,0.047-0.555,0.092-0.817,0.136
			c-0.518,0.104-1.002,0.126-1.428,0.149c-0.423,0.038-0.792,0.042-1.098,0.018C13.345,41.014,13,41,13,41s0.341-0.049,0.938-0.133
			c0.298-0.031,0.654-0.1,1.056-0.212c0.403-0.098,0.856-0.2,1.329-0.391c0.237-0.085,0.484-0.174,0.739-0.266
			c0.245-0.117,0.498-0.237,0.758-0.361c0.528-0.219,1.023-0.58,1.556-0.884c0.491-0.38,1.022-0.723,1.48-1.178
			c0.492-0.409,0.906-0.913,1.339-1.382c0.379-0.521,0.782-1.011,1.082-1.562c0.346-0.516,0.571-1.09,0.832-1.607
			c0.184-0.559,0.424-1.063,0.527-1.587c0.065-0.255,0.128-0.502,0.19-0.741c0.036-0.244,0.071-0.48,0.105-0.706
			c0.089-0.458,0.09-0.843,0.104-1.178c0.009-0.167,0.018-0.324,0.025-0.469c-0.007-0.181-0.013-0.348-0.019-0.498
			c-0.024-0.603-0.039-0.947-0.039-0.947c-0.044-1.108,0.817-2.043,1.926-2.088c1.109-0.045,2.042,0.817,2.087,1.926
			C29.021,26.856,29.014,26.986,28.998,27.101z"/>
		<path fill="#FCF9E5" d="M26.093,25.216c0,0,0.32-0.129,0.88-0.354c0.141-0.056,0.296-0.118,0.466-0.187
			c0.208-0.066,0.433-0.138,0.674-0.215c0.481-0.153,1.022-0.323,1.586-0.411c0.284-0.054,0.579-0.11,0.886-0.168
			c0.309-0.029,0.629-0.059,0.957-0.09c0.652-0.088,1.35-0.031,2.055-0.037c0.708,0.081,1.436,0.116,2.154,0.293
			c0.727,0.119,1.434,0.367,2.137,0.582c0.684,0.286,1.371,0.542,1.994,0.907c0.646,0.312,1.213,0.741,1.775,1.106
			c0.518,0.44,1.051,0.81,1.468,1.266c0.216,0.216,0.426,0.426,0.628,0.628c0.183,0.222,0.358,0.435,0.527,0.64
			c0.35,0.396,0.609,0.806,0.844,1.162c0.244,0.348,0.432,0.666,0.563,0.942c0.28,0.535,0.441,0.841,0.441,0.841
			s-0.212-0.271-0.585-0.746c-0.175-0.242-0.412-0.517-0.711-0.809c-0.285-0.301-0.602-0.642-1.002-0.956
			c-0.193-0.162-0.393-0.332-0.601-0.507c-0.224-0.154-0.454-0.312-0.69-0.476c-0.455-0.349-1.015-0.597-1.543-0.906
			c-0.576-0.235-1.139-0.523-1.762-0.692c-0.6-0.221-1.243-0.328-1.865-0.469c-0.641-0.068-1.267-0.173-1.893-0.156
			c-0.621-0.041-1.23,0.051-1.809,0.083c-0.576,0.12-1.133,0.164-1.639,0.337c-0.252,0.071-0.498,0.14-0.736,0.206
			c-0.229,0.091-0.451,0.179-0.664,0.263c-0.441,0.151-0.774,0.343-1.072,0.498c-0.148,0.076-0.289,0.147-0.418,0.213
			c-0.154,0.097-0.295,0.186-0.422,0.266c-0.51,0.322-0.802,0.507-0.802,0.507c-0.937,0.593-2.178,0.313-2.771-0.624
			s-0.314-2.178,0.624-2.771C25.87,25.317,25.985,25.26,26.093,25.216z"/>
</g>


<g id="on-hover">
		<circle fill="#2C4276" stroke="#0383F8" stroke-width="4" stroke-linecap="round" stroke-linejoin="round" stroke-miterlimit="10" cx="27" cy="27" r="25"/>

        <path fill="#0383F8" d="M25.002,26.899c0,0,0.049-0.342,0.133-0.939c0.021-0.15,0.045-0.316,0.071-0.497
			c0.047-0.213,0.097-0.444,0.151-0.69c0.107-0.493,0.231-1.047,0.436-1.58c0.096-0.272,0.195-0.557,0.297-0.851
			c0.13-0.282,0.264-0.574,0.401-0.874c0.25-0.607,0.647-1.185,0.995-1.798c0.424-0.572,0.818-1.185,1.331-1.719
			c0.466-0.569,1.034-1.059,1.571-1.561c0.591-0.448,1.154-0.915,1.783-1.272c0.594-0.403,1.248-0.68,1.847-0.984
			c0.64-0.229,1.226-0.506,1.829-0.639c0.295-0.079,0.581-0.155,0.858-0.23c0.282-0.047,0.556-0.092,0.817-0.136
			c0.518-0.104,1.002-0.126,1.428-0.149c0.424-0.038,0.793-0.042,1.098-0.018C40.654,12.986,41,13,41,13s-0.341,0.049-0.938,0.133
			c-0.299,0.031-0.654,0.1-1.057,0.212c-0.403,0.098-0.856,0.2-1.329,0.391c-0.237,0.085-0.483,0.174-0.739,0.266
			c-0.244,0.117-0.498,0.237-0.758,0.361c-0.528,0.219-1.023,0.58-1.556,0.884c-0.491,0.38-1.022,0.723-1.479,1.178
			c-0.492,0.409-0.906,0.913-1.34,1.382c-0.379,0.521-0.781,1.011-1.082,1.562c-0.346,0.516-0.57,1.09-0.832,1.607
			c-0.184,0.559-0.424,1.063-0.526,1.587c-0.065,0.255-0.128,0.502-0.19,0.741c-0.035,0.244-0.07,0.48-0.104,0.706
			c-0.089,0.458-0.091,0.843-0.104,1.178c-0.009,0.167-0.018,0.324-0.025,0.469c0.008,0.181,0.014,0.348,0.02,0.498
			c0.024,0.603,0.039,0.947,0.039,0.947c0.044,1.108-0.818,2.043-1.926,2.088c-1.108,0.045-2.043-0.817-2.087-1.926
			C24.979,27.144,24.987,27.014,25.002,26.899z"/>
		<path fill="#0383F8" d="M28.09,25.316c0,0,0.271,0.213,0.746,0.586c0.119,0.093,0.252,0.197,0.395,0.31
			c0.162,0.147,0.336,0.307,0.523,0.477c0.373,0.34,0.791,0.723,1.149,1.167c0.188,0.219,0.385,0.447,0.588,0.683
			c0.18,0.254,0.366,0.516,0.557,0.785c0.401,0.52,0.702,1.153,1.06,1.761c0.283,0.653,0.617,1.301,0.823,2.012
			c0.26,0.688,0.399,1.425,0.565,2.142c0.094,0.735,0.215,1.457,0.211,2.18c0.053,0.716-0.035,1.421-0.07,2.092
			c-0.123,0.668-0.176,1.314-0.362,1.903c-0.079,0.295-0.155,0.581-0.229,0.858c-0.101,0.269-0.197,0.527-0.291,0.776
			c-0.168,0.5-0.393,0.931-0.584,1.311c-0.179,0.387-0.36,0.707-0.533,0.96c-0.324,0.511-0.508,0.803-0.508,0.803
			s0.128-0.319,0.354-0.879c0.122-0.273,0.24-0.616,0.345-1.021c0.117-0.398,0.255-0.842,0.326-1.347
			c0.044-0.247,0.091-0.506,0.14-0.772c0.021-0.271,0.043-0.55,0.066-0.837c0.074-0.567,0.008-1.176,0.012-1.789
			c-0.084-0.615-0.115-1.247-0.28-1.871c-0.108-0.63-0.338-1.241-0.526-1.85c-0.262-0.59-0.484-1.184-0.812-1.718
			c-0.273-0.558-0.658-1.04-0.977-1.524c-0.391-0.438-0.708-0.899-1.11-1.25c-0.188-0.184-0.37-0.362-0.548-0.535
			c-0.192-0.153-0.379-0.302-0.559-0.444c-0.352-0.306-0.684-0.499-0.967-0.679c-0.141-0.091-0.272-0.177-0.393-0.256
			c-0.161-0.085-0.308-0.162-0.441-0.232c-0.535-0.28-0.84-0.44-0.84-0.44c-0.982-0.516-1.36-1.729-0.845-2.712
			c0.515-0.982,1.729-1.36,2.711-0.845C27.89,25.175,27.998,25.246,28.09,25.316z"/>
		<path fill="#0383F8" d="M25.917,28.676c0,0-0.271-0.213-0.747-0.586c-0.119-0.093-0.251-0.197-0.395-0.31
			c-0.161-0.147-0.336-0.307-0.522-0.477c-0.374-0.34-0.791-0.723-1.15-1.167c-0.188-0.219-0.385-0.447-0.588-0.684
			c-0.18-0.253-0.366-0.515-0.557-0.784c-0.401-0.521-0.702-1.153-1.06-1.761c-0.284-0.653-0.617-1.301-0.823-2.012
			c-0.26-0.688-0.399-1.425-0.565-2.142c-0.094-0.735-0.216-1.457-0.211-2.18c-0.053-0.716,0.035-1.421,0.07-2.092
			c0.123-0.668,0.175-1.314,0.362-1.903c0.079-0.295,0.156-0.581,0.23-0.858c0.101-0.269,0.198-0.527,0.291-0.776
			c0.168-0.5,0.393-0.931,0.584-1.311c0.179-0.387,0.36-0.707,0.534-0.96c0.323-0.511,0.508-0.803,0.508-0.803
			s-0.128,0.319-0.354,0.879c-0.123,0.273-0.241,0.616-0.345,1.021c-0.117,0.398-0.254,0.842-0.326,1.347
			c-0.044,0.247-0.091,0.506-0.139,0.772c-0.021,0.271-0.043,0.55-0.066,0.837c-0.074,0.567-0.009,1.176-0.012,1.789
			c0.083,0.615,0.115,1.247,0.28,1.87c0.108,0.631,0.338,1.242,0.527,1.851c0.262,0.59,0.484,1.184,0.812,1.718
			c0.274,0.558,0.659,1.04,0.977,1.524c0.392,0.438,0.708,0.899,1.111,1.25c0.188,0.184,0.371,0.362,0.547,0.535
			c0.193,0.153,0.38,0.302,0.559,0.444c0.352,0.306,0.684,0.499,0.967,0.679c0.141,0.091,0.272,0.177,0.393,0.256
			c0.161,0.085,0.308,0.162,0.441,0.232c0.535,0.28,0.84,0.44,0.84,0.44c0.982,0.516,1.361,1.729,0.846,2.712
			s-1.729,1.36-2.712,0.845C26.118,28.817,26.009,28.746,25.917,28.676z"/>
		<path fill="#0383F8" d="M27.915,28.776c0,0-0.32,0.129-0.88,0.354c-0.141,0.056-0.296,0.118-0.466,0.187
			c-0.208,0.066-0.434,0.138-0.674,0.214c-0.481,0.154-1.022,0.324-1.586,0.412c-0.284,0.054-0.579,0.11-0.885,0.168
			c-0.31,0.029-0.629,0.059-0.958,0.09c-0.651,0.088-1.35,0.031-2.055,0.037c-0.708-0.081-1.435-0.116-2.154-0.293
			c-0.726-0.119-1.434-0.367-2.137-0.582c-0.684-0.286-1.37-0.541-1.994-0.907c-0.646-0.312-1.213-0.741-1.776-1.106
			c-0.518-0.44-1.05-0.81-1.467-1.266c-0.216-0.216-0.425-0.425-0.628-0.628c-0.182-0.222-0.358-0.435-0.527-0.64
			c-0.349-0.396-0.61-0.806-0.843-1.162c-0.245-0.348-0.432-0.666-0.564-0.942c-0.281-0.535-0.441-0.841-0.441-0.841
			s0.212,0.271,0.584,0.746c0.175,0.242,0.413,0.517,0.711,0.809c0.286,0.301,0.602,0.642,1.003,0.956
			c0.192,0.162,0.393,0.332,0.6,0.507c0.223,0.154,0.454,0.312,0.691,0.476c0.454,0.349,1.015,0.597,1.543,0.906
			c0.575,0.235,1.138,0.524,1.761,0.692c0.6,0.222,1.244,0.328,1.866,0.469c0.641,0.068,1.267,0.173,1.894,0.156
			c0.62,0.041,1.229-0.051,1.809-0.083c0.576-0.12,1.133-0.164,1.638-0.337c0.253-0.071,0.499-0.14,0.737-0.207
			c0.229-0.09,0.451-0.178,0.664-0.262c0.441-0.151,0.774-0.343,1.072-0.498c0.149-0.076,0.29-0.147,0.419-0.213
			c0.153-0.097,0.294-0.186,0.421-0.266c0.51-0.322,0.802-0.507,0.802-0.507c0.938-0.593,2.178-0.313,2.771,0.624
			s0.313,2.178-0.623,2.771C28.139,28.675,28.022,28.732,27.915,28.776z"/>
		<path fill="#0383F8" d="M28.998,27.101c0,0-0.049,0.342-0.134,0.939c-0.021,0.15-0.046,0.316-0.071,0.497
			c-0.047,0.213-0.098,0.444-0.151,0.69c-0.107,0.493-0.231,1.047-0.437,1.58c-0.096,0.272-0.194,0.557-0.297,0.851
			c-0.13,0.282-0.264,0.574-0.401,0.874c-0.25,0.607-0.647,1.185-0.995,1.798c-0.424,0.572-0.818,1.185-1.331,1.719
			c-0.466,0.569-1.035,1.059-1.572,1.561c-0.59,0.448-1.154,0.915-1.782,1.272c-0.594,0.403-1.249,0.68-1.847,0.984
			c-0.64,0.229-1.226,0.506-1.829,0.639c-0.294,0.079-0.581,0.155-0.858,0.23c-0.282,0.047-0.555,0.092-0.817,0.136
			c-0.518,0.104-1.002,0.126-1.428,0.149c-0.423,0.038-0.792,0.042-1.098,0.018C13.345,41.014,13,41,13,41s0.341-0.049,0.938-0.133
			c0.298-0.031,0.654-0.1,1.056-0.212c0.403-0.098,0.856-0.2,1.329-0.391c0.237-0.085,0.484-0.174,0.739-0.266
			c0.245-0.117,0.498-0.237,0.758-0.361c0.528-0.219,1.023-0.58,1.556-0.884c0.491-0.38,1.022-0.723,1.48-1.178
			c0.492-0.409,0.906-0.913,1.339-1.382c0.379-0.521,0.782-1.011,1.082-1.562c0.346-0.516,0.571-1.09,0.832-1.607
			c0.184-0.559,0.424-1.063,0.527-1.587c0.065-0.255,0.128-0.502,0.19-0.741c0.036-0.244,0.071-0.48,0.105-0.706
			c0.089-0.458,0.09-0.843,0.104-1.178c0.009-0.167,0.018-0.324,0.025-0.469c-0.007-0.181-0.013-0.348-0.019-0.498
			c-0.024-0.603-0.039-0.947-0.039-0.947c-0.044-1.108,0.817-2.043,1.926-2.088c1.109-0.045,2.042,0.817,2.087,1.926
			C29.021,26.856,29.014,26.986,28.998,27.101z"/>
		<path fill="#0383F8" d="M26.093,25.216c0,0,0.32-0.129,0.88-0.354c0.141-0.056,0.296-0.118,0.466-0.187
			c0.208-0.066,0.433-0.138,0.674-0.215c0.481-0.153,1.022-0.323,1.586-0.411c0.284-0.054,0.579-0.11,0.886-0.168
			c0.309-0.029,0.629-0.059,0.957-0.09c0.652-0.088,1.35-0.031,2.055-0.037c0.708,0.081,1.436,0.116,2.154,0.293
			c0.727,0.119,1.434,0.367,2.137,0.582c0.684,0.286,1.371,0.542,1.994,0.907c0.646,0.312,1.213,0.741,1.775,1.106
			c0.518,0.44,1.051,0.81,1.468,1.266c0.216,0.216,0.426,0.426,0.628,0.628c0.183,0.222,0.358,0.435,0.527,0.64
			c0.35,0.396,0.609,0.806,0.844,1.162c0.244,0.348,0.432,0.666,0.563,0.942c0.28,0.535,0.441,0.841,0.441,0.841
			s-0.212-0.271-0.585-0.746c-0.175-0.242-0.412-0.517-0.711-0.809c-0.285-0.301-0.602-0.642-1.002-0.956
			c-0.193-0.162-0.393-0.332-0.601-0.507c-0.224-0.154-0.454-0.312-0.69-0.476c-0.455-0.349-1.015-0.597-1.543-0.906
			c-0.576-0.235-1.139-0.523-1.762-0.692c-0.6-0.221-1.243-0.328-1.865-0.469c-0.641-0.068-1.267-0.173-1.893-0.156
			c-0.621-0.041-1.23,0.051-1.809,0.083c-0.576,0.12-1.133,0.164-1.639,0.337c-0.252,0.071-0.498,0.14-0.736,0.206
			c-0.229,0.091-0.451,0.179-0.664,0.263c-0.441,0.151-0.774,0.343-1.072,0.498c-0.148,0.076-0.289,0.147-0.418,0.213
			c-0.154,0.097-0.295,0.186-0.422,0.266c-0.51,0.322-0.802,0.507-0.802,0.507c-0.937,0.593-2.178,0.313-2.771-0.624
			s-0.314-2.178,0.624-2.771C25.87,25.317,25.985,25.26,26.093,25.216z"/>
</g>
</svg>
